<svg xmlns="http://www.w3.org/2000/svg" viewBox="170 180 920 610"><defs>
<linearGradient id="gBase" x1="0" y1="0" x2="0" y2="1">
<stop offset="0" stop-color="#a97f22"/><stop offset="1" stop-color="#7a5a17"/>
</linearGradient>
<linearGradient id="gMid" x1="0" y1="0" x2="0" y2="1">
<stop offset="0" stop-color="#f0d078"/><stop offset="0.5" stop-color="#d4a93f"/><stop offset="1" stop-color="#c19232"/>
</linearGradient>
</defs><path d="M229,978L326,980L326,976L272,976L271,977ZM931,976L932,981L934,980L939,981L1010,979L1028,977L939,975ZM760,956L760,1002L767,1002L768,968L798,1002L805,1002L805,956L798,956L797,990L767,956ZM718,956L710,957L710,1002L719,1001ZM625,956L624,1002L652,1002L662,998L667,994L672,984L672,974L669,967L665,962L659,958L652,956ZM633,963L651,963L660,968L664,976L664,982L661,989L657,993L647,996L634,996L632,994ZM550,957L550,1002L588,1002L584,996L558,995L558,956ZM473,956L473,1002L512,1002L512,996L481,995L482,982L508,982L507,975L481,975L482,963L512,962L512,956ZM362,956L379,1002L387,1002L400,969L413,1002L421,1002L437,958L437,956L429,957L417,991L415,989L403,956L396,957L388,981L383,991L371,956ZM851,961L844,971L843,983L845,990L853,999L864,1003L876,1003L883,1001L892,995L891,977L870,978L871,984L884,985L884,992L880,995L872,997L861,995L853,988L851,983L852,973L854,969L860,964L865,962L874,962L886,967L890,963L890,961L883,957L876,955L864,955ZM953,799L954,801L960,803L966,810L1002,865L1002,904L997,910L993,911L993,913L997,912L1030,913L1029,911L1024,910L1020,905L1020,863L1055,810L1061,804L1069,799L1039,799L1046,805L1046,811L1021,851L1016,857L986,810L986,804L993,799ZM824,800L829,802L832,805L834,811L834,901L832,907L824,913L856,912L860,913L860,911L855,910L851,904L852,863L870,864L893,899L905,911L912,913L931,913L931,911L928,911L922,908L914,900L887,862L888,859L894,858L903,853L912,842L914,835L914,824L908,812L901,806L893,802L885,800L875,799ZM852,806L878,807L886,811L891,816L895,827L895,835L891,846L886,851L873,856L851,855ZM659,799L666,805L668,810L668,879L670,888L675,898L682,905L690,910L710,915L732,914L742,911L751,906L760,896L765,883L766,876L766,809L768,805L776,799L749,799L757,806L759,812L758,881L754,891L747,899L738,904L730,906L715,906L706,904L700,901L692,894L687,884L686,879L686,808L688,804L695,799ZM499,799L500,801L506,803L514,811L546,855L547,859L515,899L508,906L496,913L499,912L530,913L529,911L523,908L522,903L525,897L551,864L555,868L579,903L578,908L572,911L572,913L575,912L612,912L615,913L614,911L606,908L598,900L564,853L563,850L595,809L610,799L576,800L580,801L584,805L584,811L559,845L534,809L534,805L542,799ZM335,800L339,801L343,805L345,812L345,880L348,891L352,898L360,906L369,911L387,915L403,915L413,913L425,908L430,904L436,897L440,889L442,880L442,813L443,808L449,801L453,799L425,800L433,804L436,813L436,874L435,880L431,891L424,899L415,904L407,906L391,906L383,904L375,900L369,894L364,884L362,871L362,813L364,805L372,799ZM203,800L207,801L211,805L213,810L213,902L211,907L203,913L208,912L213,913L290,912L294,887L283,900L274,904L269,905L231,904L231,808L232,805L240,799ZM703,716L696,720L690,727L690,729L699,739L712,729L712,727ZM539,681L534,695L554,703L561,688L561,685ZM590,659L587,674L655,690L662,693L667,699L666,702L682,724L684,724L692,715L700,710L699,707L684,689L677,687L671,681L663,676L592,658ZM544,706L534,703L527,714L512,729L505,734L489,742L465,748L427,751L299,754L240,753L263,748L285,740L320,722L375,688L417,668L438,661L467,655L479,654L508,655L510,644L508,643L497,642L462,644L435,650L402,662L372,677L291,728L255,745L240,750L217,755L378,757L474,756L497,750L519,738L538,719L542,713ZM546,638L538,674L544,675L550,671L558,671L568,681L577,683L585,646L557,639ZM520,637L514,661L515,666L531,669L538,640ZM1057,753L932,751L878,748L920,734L987,715L998,713L1004,710L878,741L874,740L924,696L972,657L975,653L896,712L869,734L869,729L912,635L922,616L927,602L908,641L861,729L858,554L852,724L850,729L821,648L829,680L836,701L844,736L781,673L840,742L832,741L786,725L835,748L818,750L602,754L829,757L834,759L800,777L844,759L847,760L833,780L849,762L852,764L856,770L857,781L858,765L859,767L861,767L863,762L880,778L869,761L871,763L872,761L874,761L895,769L916,775L879,759L885,757L1044,755ZM454,553L448,555L434,564L402,580L400,582L394,597L381,618L392,613L406,604L427,587L445,567ZM475,503L472,503L435,520L411,529L409,549L405,568L425,558L463,535L468,527ZM479,468L409,480L411,519L475,496L477,492ZM409,424L407,455L410,471L432,467L476,464L480,462L480,450L483,434L430,427L416,424ZM422,363L413,392L410,409L411,415L429,417L484,429L486,418L492,404L493,396ZM588,355L574,362L555,376L542,390L532,405L522,430L519,445L518,464L524,503L523,525L519,539L512,554L495,576L482,588L463,602L496,592L529,579L554,566L570,554L581,542L592,522L597,501L598,475L608,497L614,526L615,554L613,573L609,591L665,635L709,673L740,703L746,707L746,684L741,582L741,551L740,549L715,538L692,522L677,504L670,491L665,477L667,474L723,496L739,501L756,509L762,515L774,593L774,603L778,608L777,522L774,476L770,444L759,400L717,419L671,435L606,451L601,450L677,425L722,407L739,399L739,397L731,386L713,369L695,358L671,349L648,345L628,345L609,348ZM713,334L688,325L656,319L625,319L606,322L588,327L562,339L540,355L529,366L515,385L507,400L500,419L496,439L497,448L497,440L500,428L502,432L502,436L502,433L510,411L524,386L531,377L546,362L566,348L582,340L596,335L613,331L630,329L646,329L671,332L695,339L708,345ZM453,304L437,329L427,350L427,355L466,375L491,390L497,392L504,378L515,362ZM502,254L488,265L467,286L459,297L498,337L515,357L519,359L531,346L546,335L548,332L504,254ZM580,212L558,220L536,231L511,247L513,254L551,330L554,330L573,319L597,311ZM660,307L684,310L721,322L740,297L767,271L793,252L832,231L797,215L758,203L719,196L690,194L687,195L681,215L673,252L659,303ZM678,194L652,195L630,198L603,204L589,209L591,234L594,249L601,310L623,306L655,305Z" fill="url(#gBase)" fill-rule="evenodd"/><path d="M873,997L867,997L863,1002L871,1002ZM640,997L644,998L642,999L642,1001L644,1001L645,999L653,1001L654,998L657,1000L661,997L656,999L655,997L652,998L651,1000L649,996ZM378,988L378,992L381,996L382,992L385,994L385,992L381,990L380,992ZM408,987L411,994L418,994L419,992L418,990L415,991L415,989ZM871,978L871,983L885,984L884,994L880,995L879,998L877,996L878,998L876,999L875,1002L884,1000L891,996L890,978L889,980ZM265,978L296,979L296,977ZM932,980L980,979L996,977L932,976ZM761,957L760,965L763,995L761,996L761,999L763,1000L763,1002L767,1001L766,969L768,967L778,979L791,990L790,992L798,1001L805,1001L805,957L799,957L798,960L796,990L767,957ZM711,957L712,1001L713,998L715,1001L716,984L718,1001L717,957L716,959ZM625,957L627,988L625,990L627,991L625,1001L634,1002L638,996L632,995L633,962L651,962L656,964L663,971L665,979L660,993L663,994L669,985L671,985L670,970L667,965L661,960L652,957ZM551,957L551,1001L554,1002L584,1001L585,997L587,1002L587,996L560,996L559,999L558,996L555,995L558,991L557,957ZM474,957L474,1001L509,1002L508,997L507,1001L506,999L504,1000L503,997L501,997L500,1000L499,996L478,995L479,982L507,981L507,976L481,978L480,975L481,962L511,962L511,957ZM436,957L429,958L419,988L425,989ZM403,957L396,958L390,976L394,979L391,986L388,987L387,992L389,993L389,995L390,992L389,989L391,990L398,970L400,968L407,981L408,978L411,984L413,984L411,978L408,977L410,976ZM364,957L364,960L373,984L378,985L381,988L370,957ZM887,960L877,956L864,956L852,961L848,965L844,973L844,985L847,992L853,998L861,1001L863,997L861,998L859,997L851,985L850,978L852,971L857,965L866,961L874,961L886,966L889,962ZM672,871L669,875L672,876L674,873ZM956,801L964,806L999,860L1003,862L1002,864L1003,867L1006,870L1005,877L1008,878L1009,881L1014,881L1016,880L1017,877L1019,899L1019,864L1053,812L1060,804L1066,800L1042,801L1047,806L1046,812L1018,856L1016,857L986,811L985,805L989,800ZM827,801L830,802L834,808L835,883L836,871L837,874L845,875L844,872L848,871L848,869L846,868L848,867L849,863L853,862L854,860L868,862L874,869L877,870L876,872L877,874L879,873L881,876L880,878L881,880L883,879L885,882L888,882L889,880L895,881L896,878L891,872L893,870L891,871L884,862L887,859L897,856L902,853L909,846L913,836L913,824L908,813L900,806L887,801L880,800ZM851,806L860,805L876,806L884,809L891,815L895,823L896,832L894,842L888,850L882,854L870,857L852,857L850,855ZM773,800L752,801L758,806L760,813L762,860L760,861L760,863L762,863L763,861L765,878L765,811L768,804ZM662,800L667,805L669,812L669,862L671,861L674,869L678,870L676,871L679,875L679,867L682,867L683,865L685,875L685,809L686,806L692,800ZM502,801L507,803L515,811L544,852L550,856L548,863L543,865L544,869L546,866L548,867L549,864L554,863L561,872L564,871L565,869L570,875L569,873L571,869L573,873L576,875L575,878L577,877L580,880L576,874L578,872L562,850L590,814L600,804L606,800L580,801L584,804L585,810L561,844L557,844L535,812L533,806L538,800ZM563,863L566,865L563,867L560,865ZM449,800L429,801L434,805L436,809L437,863L440,859L442,877L442,810L444,805ZM339,801L344,805L346,812L346,841L348,842L350,852L349,858L351,856L354,858L353,856L355,855L356,851L357,854L360,851L362,874L362,809L364,804L369,800ZM207,801L213,807L216,848L215,850L218,849L218,851L219,849L221,851L223,850L227,852L230,851L230,810L231,806L237,800ZM516,738L499,748L510,743ZM703,717L697,720L695,723L705,733L711,729L711,727ZM544,707L542,708L533,722L518,737L523,734L534,723L542,712ZM558,692L552,702L554,702ZM556,685L551,691L548,697L548,700L550,700ZM589,666L644,679L665,686L673,693L674,697L678,700L682,707L690,715L692,715L699,710L698,707L682,688L677,688L670,681L663,677L591,659ZM457,656L471,654L500,653L471,653ZM509,644L475,643L453,646L437,650L399,664L368,680L355,689L402,664L438,651L465,646L468,648L499,648L509,647ZM547,638L543,655L560,660L565,660L581,664L584,646ZM521,638L518,651L534,654L537,641L526,638ZM1008,753L935,752L875,749L877,747L937,729L940,727L873,743L872,741L929,691L953,672L955,669L867,736L866,734L891,678L899,663L905,647L864,724L862,730L860,727L858,581L854,696L851,732L849,730L828,671L844,728L845,738L803,697L841,743L832,742L807,734L829,745L836,747L838,749L816,751L676,754L815,757L825,756L838,758L822,767L844,758L849,758L845,764L853,757L857,763L859,757L866,763L866,758L893,766L880,761L876,758L901,756L990,755ZM526,524L524,524L525,527L523,528L518,544L506,564L483,588L467,600L504,588L506,585L487,592L484,591L499,577L513,559L522,541ZM669,489L668,490L677,509L695,529L709,539L717,543L723,549L721,551L724,552L725,554L726,552L727,555L729,555L730,552L732,553L734,551L736,553L736,567L734,569L737,571L738,633L741,683L740,698L739,696L735,694L738,699L745,705L740,550L717,540L697,527L679,508ZM758,401L724,417L677,434L685,435L683,436L684,438L687,439L685,442L681,443L685,447L685,442L687,444L688,449L686,451L690,454L691,457L696,460L693,465L694,469L696,468L698,470L700,477L698,478L700,481L700,477L702,478L702,482L705,484L702,485L699,483L696,484L699,484L706,488L742,501L758,509L763,514L773,579L773,586L775,593L775,600L778,604L777,545L774,482L767,433ZM623,351L626,352L625,354L628,356L627,358L629,362L628,362L629,367L627,368L630,369L629,371L631,372L629,374L632,373L633,371L635,373L636,370L639,371L638,373L639,371L641,374L635,379L633,377L633,379L636,380L637,378L639,379L641,376L645,383L646,381L649,388L646,390L648,390L649,392L651,391L657,400L654,401L658,403L655,405L657,407L662,405L663,403L665,406L661,408L663,409L663,414L665,416L665,412L667,412L669,414L667,415L670,421L674,425L718,408L737,399L738,397L730,386L713,370L701,362L686,355L667,349L648,346L626,347L638,348L638,351L636,353L634,349L633,351L631,349L630,351L629,349L627,349L626,351ZM655,385L657,390L655,393L653,390L650,389L654,388ZM640,328L642,328L643,326L644,328L648,329L660,328L660,330L666,330L683,334L705,343L708,343L711,334L681,324L667,322L666,324L660,323L665,321L660,321L659,323L652,322L658,320L649,320L645,324L643,322ZM673,197L670,201L667,200L663,204L665,206L672,205ZM691,311L692,307L693,312L703,314L717,320L722,320L738,298L768,269L784,257L812,241L814,238L816,239L818,236L820,237L831,231L798,216L756,203L714,196L704,196L702,200L694,197L702,195L691,196L693,197L687,198L689,199L688,202L686,201L688,202L687,206L685,204L685,206L688,209L686,210L684,208L683,214L685,214L686,212L688,213L688,216L686,219L688,217L690,219L687,222L689,233L683,236L682,238L683,240L684,236L688,236L691,242L692,239L691,241L691,237L693,237L694,235L695,237L699,233L700,236L703,236L704,234L706,236L707,234L709,238L707,244L708,242L708,248L706,247L709,250L706,251L704,254L700,249L695,250L700,251L707,257L706,260L704,258L701,262L699,260L700,263L698,269L702,273L699,278L697,276L698,281L697,283L699,283L698,280L700,279L702,281L700,286L702,287L698,289L704,292L699,293L695,299L690,300L692,301L691,303L693,304L690,307ZM702,262L703,267L701,270L700,266ZM699,214L700,219L697,219L696,217ZM693,206L696,208L694,209L695,217L692,220L690,217L691,214L688,213L692,210ZM677,195L675,197L671,221L666,240L667,244Z" fill="url(#gMid)" fill-rule="evenodd"/><path d="M834,754L836,754L837,756L840,755L845,757L853,756L856,758L863,756L867,757L879,756L880,754L900,753L884,753L878,752L877,750L868,750L872,747L870,746L870,744L868,745L867,743L883,727L879,729L868,739L864,738L862,739L861,737L857,737L857,720L854,739L851,737L851,735L849,739L847,738L848,742L847,745L846,743L843,743L844,745L843,747L846,748ZM700,719L700,721L705,728L708,730L706,725ZM679,690L678,693L681,695L683,700L695,710L687,698ZM652,678L663,681L673,688L670,684L660,678L656,677ZM623,672L626,671L627,673L630,670L624,669ZM743,648L740,648L741,658L741,656L743,655ZM742,621L740,628L740,636L742,636ZM738,574L740,574L739,558ZM702,532L709,538L716,541L712,537ZM773,514L775,526L775,514ZM771,489L773,511L775,511L774,492L773,489ZM723,419L756,407L757,412L759,411L760,414L759,420L765,442L765,440L767,439L767,437L764,436L766,432L764,433L763,431L765,430L758,403L733,413ZM701,366L710,372L728,390L732,397L735,399L737,398L727,384L712,370L705,368L704,365ZM776,259L758,273L740,291L721,317L722,319L731,304L735,301L742,291L755,278L775,262ZM782,256L801,244L814,238L815,235L822,234L828,230L794,215L784,213L814,225L822,230L785,252Z" fill="#f6e3a3" fill-rule="evenodd"/></svg>